name Walk9.mot
datacolumns 19
datarows 25
range 2.05500000 2.07900000
endheader

                time	   L_ground_force_vx	   L_ground_force_vy	   L_ground_force_vz	   L_ground_force_px	   L_ground_force_py	   L_ground_force_pz	   R_ground_force_vx	   R_ground_force_vy	   R_ground_force_vz	   R_ground_force_px	   R_ground_force_py	   R_ground_force_pz	   L_ground_torque_x	   L_ground_torque_y	   L_ground_torque_z	   R_ground_torque_x	   R_ground_torque_y	   R_ground_torque_z	
          2.05500000	          0.00000000	          0.00000000	          0.00000000	          0.00000000	          0.00000000	          0.00000000	          0.00000000	          0.00000000	          0.00000000	          0.00000000	          0.00000000	          0.00000000	          0.00000000	          0.00000000	          0.00000000	          0.00000000	          0.00000000	          0.00000000	
          2.05600000	          0.00000000	          0.00000000	          0.00000000	          0.00000000	          0.00000000	          0.00000000	          0.00000000	          0.00000000	          0.00000000	          0.00000000	          0.00000000	          0.00000000	          0.00000000	          0.00000000	          0.00000000	          0.00000000	          0.00000000	          0.00000000	
          2.05700000	          0.00000000	          0.00000000	          0.00000000	          0.00000000	          0.00000000	          0.00000000	          0.00000000	          0.00000000	          0.00000000	          0.00000000	          0.00000000	          0.00000000	          0.00000000	          0.00000000	          0.00000000	          0.00000000	          0.00000000	          0.00000000	
          2.05800000	          0.00000000	          0.00000000	          0.00000000	          0.00000000	          0.00000000	          0.00000000	          3.50183017	          9.83598559	          0.87956098	         -0.51546885	          0.00000000	         -0.06383104	          0.00000000	          0.00000000	          0.00000000	          0.00000000	         -0.06730785	          0.00000000	
          2.05900000	          0.00000000	          0.00000000	          0.00000000	          0.00000000	          0.00000000	          0.00000000	          5.78160368	         17.27966767	          1.42366092	         -0.51016487	          0.00000000	         -0.06090811	          0.00000000	          0.00000000	          0.00000000	          0.00000000	         -0.10333392	          0.00000000	
          2.06000000	          0.00000000	          0.00000000	          0.00000000	          0.00000000	          0.00000000	          0.00000000	          8.36581901	         26.53332970	          2.02428585	         -0.50603934	          0.00000000	         -0.05839961	          0.00000000	          0.00000000	          0.00000000	          0.00000000	         -0.14073600	          0.00000000	
          2.06100000	          0.00000000	          0.00000000	          0.00000000	          0.00000000	          0.00000000	          0.00000000	         11.02682728	         37.17974512	          2.62984909	         -0.50287631	          0.00000000	         -0.05655442	          0.00000000	          0.00000000	          0.00000000	          0.00000000	         -0.17486363	          0.00000000	
          2.06200000	          0.00000000	          0.00000000	          0.00000000	          0.00000000	          0.00000000	          0.00000000	         13.69417755	         49.16252171	          3.22237674	         -0.50045543	          0.00000000	         -0.05539196	          0.00000000	          0.00000000	          0.00000000	          0.00000000	         -0.20551652	          0.00000000	
          2.06300000	          0.00000000	          0.00000000	          0.00000000	          0.00000000	          0.00000000	          0.00000000	         16.40613429	         62.63410022	          3.79634201	         -0.49852289	          0.00000000	         -0.05462013	          0.00000000	          0.00000000	          0.00000000	          0.00000000	         -0.23632299	          0.00000000	
          2.06400000	          0.00000000	          0.00000000	          0.00000000	          0.00000000	          0.00000000	          0.00000000	         19.21896149	         77.66952713	          4.33852461	         -0.49691214	          0.00000000	         -0.05403561	          0.00000000	          0.00000000	          0.00000000	          0.00000000	         -0.26813583	          0.00000000	
          2.06500000	          0.00000000	          0.00000000	          0.00000000	          0.00000000	          0.00000000	          0.00000000	         22.13848720	         94.03646767	          4.81585906	         -0.49556966	          0.00000000	         -0.05363407	          0.00000000	          0.00000000	          0.00000000	          0.00000000	         -0.29750656	          0.00000000	
          2.06600000	          0.00000000	          0.00000000	          0.00000000	          0.00000000	          0.00000000	          0.00000000	         25.08774116	        111.05290532	          5.16884419	         -0.49451613	          0.00000000	         -0.05340005	          0.00000000	          0.00000000	          0.00000000	          0.00000000	         -0.32333210	          0.00000000	
          2.06700000	          0.00000000	          0.00000000	          0.00000000	          0.00000000	          0.00000000	          0.00000000	         27.91657165	        127.63136847	          5.31782367	         -0.49373742	          0.00000000	         -0.05326301	          0.00000000	          0.00000000	          0.00000000	          0.00000000	         -0.34752906	          0.00000000	
          2.06800000	          0.00000000	          0.00000000	          0.00000000	          0.00000000	          0.00000000	          0.00000000	         30.43015332	        142.55547817	          5.18759237	         -0.49311463	          0.00000000	         -0.05317227	          0.00000000	          0.00000000	          0.00000000	          0.00000000	         -0.36807948	          0.00000000	
          2.06900000	          0.00000000	          0.00000000	          0.00000000	          0.00000000	          0.00000000	          0.00000000	         32.42181866	        154.82767654	          4.74157561	         -0.49253480	          0.00000000	         -0.05310948	          0.00000000	          0.00000000	          0.00000000	          0.00000000	         -0.37809111	          0.00000000	
          2.07000000	          0.00000000	          0.00000000	          0.00000000	          0.00000000	          0.00000000	          0.00000000	         33.71175693	        163.90162263	          3.99950064	         -0.49200466	          0.00000000	         -0.05307855	          0.00000000	          0.00000000	          0.00000000	          0.00000000	         -0.37315898	          0.00000000	
          2.07100000	          0.00000000	          0.00000000	          0.00000000	          0.00000000	          0.00000000	          0.00000000	         34.19016182	        169.76994490	          3.02730610	         -0.49157397	          0.00000000	         -0.05309273	          0.00000000	          0.00000000	          0.00000000	          0.00000000	         -0.35737068	          0.00000000	
          2.07200000	          0.00000000	          0.00000000	          0.00000000	          0.00000000	          0.00000000	          0.00000000	         33.84830651	        172.89836237	          1.91374363	         -0.49121317	          0.00000000	         -0.05312316	          0.00000000	          0.00000000	          0.00000000	          0.00000000	         -0.34113312	          0.00000000	
          2.07300000	          0.00000000	          0.00000000	          0.00000000	          0.00000000	          0.00000000	          0.00000000	         32.77745003	        174.01328362	          0.74653166	         -0.49082840	          0.00000000	         -0.05307802	          0.00000000	          0.00000000	          0.00000000	          0.00000000	         -0.33250161	          0.00000000	
          2.07400000	          0.00000000	          0.00000000	          0.00000000	          0.00000000	          0.00000000	          0.00000000	         31.13585045	        173.87032891	         -0.40620223	         -0.49035337	          0.00000000	         -0.05286714	          0.00000000	          0.00000000	          0.00000000	          0.00000000	         -0.33204319	          0.00000000	
          2.07500000	          0.00000000	          0.00000000	          0.00000000	          0.00000000	          0.00000000	          0.00000000	         29.10198026	        173.11220036	         -1.50418661	         -0.48980071	          0.00000000	         -0.05247235	          0.00000000	          0.00000000	          0.00000000	          0.00000000	         -0.33675868	          0.00000000	
          2.07600000	          0.00000000	          0.00000000	          0.00000000	          0.00000000	          0.00000000	          0.00000000	         26.83594728	        172.20933197	         -2.53484660	         -0.48925813	          0.00000000	         -0.05194841	          0.00000000	          0.00000000	          0.00000000	          0.00000000	         -0.34547882	          0.00000000	
          2.07700000	          0.00000000	          0.00000000	          0.00000000	          0.00000000	          0.00000000	          0.00000000	         24.46003530	        171.47455131	         -3.50376271	         -0.48882550	          0.00000000	         -0.05134762	          0.00000000	          0.00000000	          0.00000000	          0.00000000	         -0.35908978	          0.00000000	
          2.07800000	          0.00000000	          0.00000000	          0.00000000	          0.00000000	          0.00000000	          0.00000000	         22.05315082	        171.13546697	         -4.41521906	         -0.48850356	          0.00000000	         -0.05067476	          0.00000000	          0.00000000	          0.00000000	          0.00000000	         -0.37668355	          0.00000000	
          2.07900000	          0.00000000	          0.00000000	          0.00000000	          0.00000000	          0.00000000	          0.00000000	         19.65079275	        171.37252561	         -5.26151261	         -0.48816130	          0.00000000	         -0.04996499	          0.00000000	          0.00000000	          0.00000000	          0.00000000	         -0.39194159	          0.00000000	
